<?xml version="1.0" standalone="no"?>
<!DOCTYPE svg PUBLIC "-//W3C//DTD SVG 20010904//EN"
 "http://www.w3.org/TR/2001/REC-SVG-20010904/DTD/svg10.dtd">
<svg version="1.0" xmlns="http://www.w3.org/2000/svg"
 width="200.000000pt" height="200.000000pt" viewBox="0 0 200.000000 200.000000"
 preserveAspectRatio="xMidYMid meet">
<metadata>
Created by potrace 1.14, written by Peter Selinger 2001-2017
</metadata>
<g transform="translate(0.000000,200.000000) scale(0.100000,-0.100000)"
fill="#000000" stroke="none">
<path d="M881 1903 c-75 -15 -159 -53 -183 -82 -17 -20 -49 -76 -48 -86 0 -3
0 -63 0 -134 l0 -129 -30 -7 c-20 -4 -36 -17 -46 -37 -28 -54 -4 -134 73 -241
19 -27 43 -79 55 -115 43 -141 96 -215 186 -259 128 -63 275 -20 361 105 26
37 69 143 77 187 3 17 23 56 45 87 53 76 79 136 81 189 1 35 -3 46 -26 66 -15
12 -34 23 -42 23 -11 0 -14 23 -15 123 0 67 -3 133 -5 147 -6 34 -41 83 -78
108 -86 58 -272 83 -405 55z"/>
<path d="M589 697 c-169 -83 -279 -214 -348 -416 -21 -62 -33 -118 -35 -171
l-1 -25 333 -1 c194 -1 332 3 332 8 0 5 -7 22 -15 37 -16 31 -74 186 -80 212
-2 9 -13 46 -24 84 -12 37 -23 77 -25 89 -3 11 -7 30 -10 41 -8 35 -36 166
-36 171 0 10 -30 1 -91 -29z"/>
<path d="M1330 707 c0 -68 -99 -406 -167 -573 l-21 -51 334 0 334 0 0 32 c0
60 -40 190 -86 283 -74 147 -208 271 -344 319 -47 17 -50 16 -50 -10z"/>
<path d="M920 605 l31 -55 -31 -96 c-19 -61 -27 -100 -22 -108 5 -6 32 -59 59
-118 l50 -108 57 122 58 122 -22 75 c-13 42 -26 82 -30 90 -5 8 1 31 14 56 43
80 49 75 -80 75 l-115 0 31 -55z"/>
</g>
</svg>
